<?xml version="1.0" encoding="utf-8"?>
<!-- Generator: Adobe Illustrator 23.0.6, SVG Export Plug-In . SVG Version: 6.00 Build 0)  -->
<svg version="1.1" id="Layer_1" xmlns="http://www.w3.org/2000/svg" xmlns:xlink="http://www.w3.org/1999/xlink" x="0px" y="0px"
	 viewBox="0 0 1920 932" style="enable-background:new 0 0 1920 932;" xml:space="preserve">
<style type="text/css">
	.st0{clip-path:url(#SVGID_2_);fill:#EDEDED;}
	.st1{clip-path:url(#SVGID_2_);fill:#FF86BC;}
	.st2{clip-path:url(#SVGID_2_);fill:#FF9AC1;}
	.st3{clip-path:url(#SVGID_2_);fill:#FFB7D6;}
	.st4{clip-path:url(#SVGID_2_);}
	.st5{fill:#231F20;}
	.st6{fill:#003070;}
</style>
<image style="overflow:visible;" width="1920" height="932" xlink:href="rr.jpg" >
</image>
<g>
	<defs>
		<circle id="SVGID_1_" cx="921.5" cy="438.9" r="448.3"/>
	</defs>
	<clipPath id="SVGID_2_">
		<use xlink:href="#SVGID_1_"  style="overflow:visible;"/>
	</clipPath>
	<circle class="st0" cx="969.2" cy="469.8" r="403"/>
	<path class="st1" d="M971.1,144.4c11.9,6.5,24.1,12.8,36.6,19.1c164.2,81.9,211.5,101.3,266.3,94c6.9-0.9,18.7-2.9,33.2-7.4
		c-0.6-0.9-1.5-2.2-2.5-3.8c-61.8-92.5-149.1-134.4-166.3-142.4c-81-37.5-154.6-38.5-191.6-36.5L971.1,144.4z"/>
	<path class="st2" d="M946.7,67.4c-23.3,1.3-55,5-91.2,15.6c-61.2,18-106,47.1-133.2,68.2c-29.5,22.9-77,66.3-112.3,135.6
		c-42.1,82.8-44.8,159.3-43.6,196.9l23.8-56.6l5-17.6l17.6-12.6l67.5-4.3l50.6-64.9L685.8,206l62.8-25.1l89.2-3.8l70.4-22.6
		l40.2-81.7L946.7,67.4z"/>
	<path class="st3" d="M1156.6,820.6c-28.7,17-77.3,40.9-141.5,49.6c-125.2,17.1-223.1-35.2-264.4-61.7
		c-26.4-17-116.2-76.6-157.2-192.4c-14-39.6-18.4-74.5-19.7-98.5l30.2,31.4l70.7,27.2l19.8-33.5l62.8,0.4l45.7,14.6l87.1,21.3
		l76.4,32.6l-45.2,19.7l-84.9,6.9l-37.7,72.9l2.3,32.8l0.9,16.9l10.5,35.8l59.1-7.5l15.1,1.3l34.6-17.6l10.8-20.5l172,48.1
		L1156.6,820.6z"/>
	<g class="st4">
		<path class="st5" d="M857.3,171.2c-0.5-1.5-3.8-2.6-56.1,2.3c0,0-30.1,2.8-45.9-5.6c-2.5-1.4-5-2.9-5-2.9
			c-6.3-4.2-9.4-8.4-32.5-23.3c0,0,0,0,0,0c-8.7-6.5-31.5-24.3-63.7-37.5c-5.5-2.3-9-3.4-12.2-1.9c-7.1,3.6-7,18.4-5.6,27.2
			c2.2,14,9.4,23.7,11.2,26.2c8.3,11.4,20.8,40.4,45.9,98.4c11.1,25.7,12.9,32.7,14.1,38.4c3.6,18,7.8,38.8-1.9,58.1
			c-4.4,8.9-11,15.8-25.3,42.2c-0.5,1-1,1.8-1.3,2.4c-6.8,1.4-12.5,2.9-16.5,4.1c-11.5,3.3-14.2,5-15.9,6.6
			c-3.3,2.9-4.8,5.9-7.5,12.2c-7.2,16.9-8.8,23.5-13.1,32.8c-5.8,12.3-7.7,10.7-10.3,17.8c-5.9,16.2,1.6,32.7,8.4,47.8
			c1.2,2.6,13,27.8,39.3,47.8c13,9.9,19.4,10.8,24.4,9.4c7.2-2.1,11.2-9.5,13.1-13.1c7.9-14.7,2.7-27.6,9.4-30.9
			c2.3-1.2,4-0.1,9.4,0.9c9.8,1.8,17.4,0.6,27.2-0.9c7.3-1.2,18.4-3.8,30.9-10.3c5.2,10.1,10.3,18,14.1,23.4
			c9.1,13.1,17,24.1,30.9,32.8c5.1,3.2,11,6.8,18.7,8.4c20.7,4.2,39.4-9.4,49.7-16.9c38-27.7,52.5-74.8,57.1-92.8
			c-5.4,9.3-10.4,16.6-14.1,21.5c-9.3,12.7-24,30.2-45.9,44c-8.7,5.5-13.1,6.9-17.8,6.6c-3.5-0.3-11.2-1.9-23.4-18.7
			c-7.7-10.5-22.1-30.3-23.4-60c-0.3-7.4,1.3-17.1,4.7-36.5c5.3-30.9,9.8-36.8,14.1-40.3c8.8-7.3,19.5-6.9,19.7-11.2
			c0.1-3.5-6.8-7.1-12.2-8.4c-22.4-5.4-46.9,21.8-53.4,29c-6.8,7.6-25.6,29.2-28.1,62.8c-1.2,16.6,2,30.1,4.7,38.4l-81.5,13.1
			c1.3-1.8,3-4.6,3.7-8.4c1.1-5.6-0.4-10.1-0.9-12.2c-4-14.6,7.6-25.9,3.7-31.9c-2.7-4.2-12.9-5.5-45,5.6c-0.4-2.7-0.8-7.1,0-12.2
			c1-6.5,3.5-11.1,4.7-13.1c31-55.9,62.8-96.5,62.8-96.5c5.4-6.9,10.4-13.1,11.2-14.1c3.5-4.3,6.7-8.1,9.4-11.2
			c-2-1.4-4.7-3.6-7.5-6.6c-3.8-4-8.1-9.9-12.2-20.6c-4.2-11.1-9.6-25.6-7.5-45c1.1-9.7,3.6-32.5,20.6-44c5.6-3.8,11.8-5,24.4-7.5
			c15.2-3,19.3-1.6,40.3-3.7c25.1-2.5,34.1-6.1,39.3-8.4C846.1,181.3,858.3,174.4,857.3,171.2z"/>
		<path class="st6" d="M856.8,171.4c-0.5-1.5-3.8-2.6-56.1,2.3c0,0-30.1,2.8-45.9-5.6c-2.5-1.4-5-2.9-5-2.9
			c-6.3-4.2-9.4-8.4-32.5-23.3c0,0,0,0,0,0c-8.7-6.5-31.5-24.3-63.7-37.5c-5.5-2.3-9-3.4-12.2-1.9c-7.1,3.6-7,18.4-5.6,27.2
			c2.2,14,9.4,23.7,11.2,26.2c8.3,11.4,20.8,40.4,45.9,98.4c11.1,25.7,12.9,32.7,14.1,38.4c3.6,18,7.8,38.8-1.9,58.1
			c-1.2,2.4-3,5.3-3,5.3c-2.3,3.9-3.2,5.2-3.8,6.5c-2.3,4.2-2.6,7.1-3.8,11.9c-2.8,11.3-7.5,18.4-7,18.7c0.2,0.1,1.1-1,4.5-6.9
			c1-1.5,2.4-3.7,4.1-6.3c0,0,1.9-2.9,3.6-5.4c4.4-6.6,11.6-17,20.5-28.5c4.6-6,8.9-11.2,11.2-14.1c3.5-4.3,6.7-8.1,9.4-11.2
			c-2-1.4-4.7-3.6-7.5-6.6c-3.8-4-8.1-9.9-12.2-20.6c-4.2-11.1-9.6-25.6-7.5-45c1.1-9.7,3.6-32.5,20.6-44c5.6-3.8,11.8-5,24.4-7.5
			c15.2-3,19.3-1.6,40.3-3.7c25.1-2.5,34.1-6.1,39.3-8.4C845.6,181.5,857.9,174.6,856.8,171.4z"/>
		<path class="st5" d="M674.8,576.3c-42.7-22.5-56.8-36.7-60.9-45.9c-0.9-2.1-3-7.8-8.4-10.3c-6.6-3.1-11.1,1.7-22.5,0
			c-3.9-0.6-10.6-1.6-14.1-6.6c-2.9-4.2-2.3-9.2-1.9-12.2c3.2-22.8,9.4-38.4,9.4-38.4c4.2-10.8,14.4-36.1,26.2-52.5
			c2-2.8,5.4-7.1,11.2-10.3c5.2-2.8,10.2-3.5,13.1-3.7l30.9-3.7c-4-0.1-9.8-0.1-16.9,0c-14.4,0.2-21.7,0.3-27.6,1.9
			c-10.6,2.7-17.7,8.2-22,11.7c-15.5,12.3-21.5,28-26.2,40.3c-0.4,1.1-8.9,22.5-8.7,44.5c0,5,0.5,9.8,2.2,15
			c2.5,7.8,6.5,12.8,9.4,16.4c18,22.7,23.8,32.5,38.9,46.8c2.2,2.1,5.2,4.9,9.8,7.5c6.9,3.9,12.8,4.9,20.6,6.1
			c11.5,1.8,19.1,3,27.6-0.5C669.5,580.6,672.7,578.1,674.8,576.3z"/>
		<path class="st6" d="M854.9,171.2c26.3,3.5,45.7,11.3,57.9,17.2c18.5,9.1,25.8,16.7,28.7,20c8.7,9.8,10.7,17.7,16.2,28.7
			c5.6,11.3,15.2,26.5,32.5,42.5c0.2-4.9,0.4-12.8,0-22.5c-0.7-18-2.8-30.3-3.7-37.5c-4.8-34.9-0.2-72.2,2.5-93.7
			c1.3-10.3,2.7-19.2,0-31.2c-1.2-5.4-5.6-23.2-21.2-33.7c-4-2.7-11.9-8-21.2-6.4c-7,1.3-11.5,6-16.2,11.3
			c-7.4,8.5-17.2,20.8-27.5,37.5L854.9,171.2z"/>
		<path class="st6" d="M1007.7,163.5c1.3,14.6,5.6,50.9,21.2,81.2c9.3,18.1,18.2,25.2,26.2,28.7c3.1,1.4,3.8,1.2,15,3.7
			c22.7,5.2,34,7.8,38.7,11.2c16.5,11.9,18.5,35,18.7,38.7c0.5,6.7-0.4,12.4-1.2,16.2c-2.7,26.8-6.6,49.2-10,66.2
			c-4.7,23.4-14.7,66.2-35,117.4c-5.8,14.7-11.2,26.7-15,35c2.8-1.6,7.2-4.2,12.5-7.5c30.5-19,58.6-36.5,79.9-67.5
			c17.1-24.8,22.6-47.6,23.7-52.5c2.9-12.8,1-12.9,3.7-33.7c3.3-25.5,7-51.9,23.7-76.2c10.1-14.7,18.1-18.7,21.2-20
			c13.2-5.7,26.1-2.4,35,0c25.7,6.9,41.7,23.6,50,32.5c26.2,28,33.6,58.9,35,65c8.3,36.5-1,66.8-8.7,92.4
			c-9.4,30.8-15.1,29-26.2,66.2c-13.6,45.3-10.3,65.2-8.7,72.5c4.3,20.1,14.1,34.9,21.2,43.7l202.4-137.4
			c-4.8-5.4-12.2-13.6-21.2-23.7c-27.6-30.8-39.4-43.9-43.7-48.7c-33.4-37.5-59.2-78.6-66.2-89.9c-20.9-33.7-36-56.6-66.2-102.4
			c-3.3-5-10.9-16.2-25-23.7c-11.4-6.1-23.9-7.2-30-7.5c-8.4-0.4-14.7,0.6-15.8,0.8c-12.7,1.9-57.4-8.9-179.1-53.3L1007.7,163.5z"/>
		<path class="st5" d="M804,550.7c-0.1,3.7-0.8,11.5-6.2,18.7c-6.1,8.2-14.7,10.6-21.2,12.5c-6.6,1.9-19.5,5.6-32.5,0
			c-14.1-6.1-23.5-21.3-25-38.7h11.2h31.2H804V550.7z"/>
		<path class="st6" d="M799,290.9c3.7,3.5,9,7.8,16.2,11.2c13.4,6.5,25.9,6.7,32.5,6.2c-14.9,8.4-24.8,14.8-31.2,20
			c-2.1,1.6-6.8,5.6-13.7,6.2c-4.7,0.4-6.4,0.3-7.5-0.6c-1.6-1.4-1.7-3.7-1.6-6.9c0.1-3.9,0.5-9.3,1.6-15.9L799,290.9z"/>
		<path class="st5" d="M853.4,372.2c3.8-2.7,10.7-6.7,20-7.7c12.8-1.3,22.7,4,29,7.5c11.3,6.2,10.2,9.7,30.9,25.3
			c6.5,4.9,12.3,8.8,20.6,10.3c5.7,1,10.7,0.6,14.1,0c0.2,3.8,0.3,8,0,12.5c-0.5,7.7-1.1,17.7-5.6,27.8c-3.7,8.2-6.3,8.1-15.9,22.5
			c-4.2,6.3-7.4,11.8-9.4,15.5c-0.2-1.9-0.5-4.8-0.9-8.4c-3.5-32.3-3.3-36.7-6.6-44.5c-3.8-9-9.1-14.9-12.6-18.7
			c-3.2-3.5-8.1-8.2-23.9-17.8c-7.6-4.6-18-10.6-30.9-16.9L853.4,372.2z"/>
		<path class="st6" d="M890.2,579.1c19,0.1,48-2.3,79.6-15.9c0,0,10-4.3,18.7-9.4c51.2-29.5,78.8-137.3,81.5-148
			c1.2,3.6,2.6,8.5,3.7,14.4c0.4,1.9,3,15.7,1.9,29.7c-2.2,28.5-19.5,56.7-21.5,60c-2.3,3.6-6.8,10.5-6.6,19.7
			c0.1,2,0.5,9.9,5.6,15.9c6.5,7.7,17.1,8.2,31.9,8.4c26.2,0.5,39.3,0.7,50.6,0c33.3-2.2,50.5-5.3,57.1-6.6
			c21.9-4.2,32.1-8.1,41.2-15.9c6.5-5.6,10.7-11.7,13.1-15.9c-1.5,3.7-3.3,9.2-4.7,15.9c-4.6,23.2,0.9,42.1,3.7,51.5
			c6.3,20.7,16.9,35.4,24.4,44c-3-2.4-7.4-5.8-13.1-9.4c-15.7-9.9-30.3-14.7-42.2-17.8c-6.6-1.7-42.5-10.9-106.8-14.1
			c-54.7-2.6-52.4,2.9-78.7,0.9c-4.1-0.3-13.9-1.2-25.3,2.8c-5.8,2-10.1,4.8-18.7,10.3c-16.5,10.5-24.9,15.5-26.2,15.9
			c-8.7,2.8-23,1.3-46.8-19.7L890.2,579.1z"/>
		<path class="st6" d="M922.1,631.6c-20.2-4.8-34.6-12.1-44-17.8c-8.8-5.3-21.1-14.2-39.3-22.5c-4.4-2-11.7-5.1-21.5-5.6
			c-10.5-0.5-14.4,0.2-16.9,1.9c-4,2.7-5.7,6.9-6.6,9.4c-7.6,20.9-10.3,45-10.3,45c-4.6,27.4-3.6,24.7-3.7,31.9
			c-0.3,13,1.6,38.3,21.5,70.3c1.8-1.6,4.5-4.2,7.5-7.5c8.4-9.4,13.9-19.2,24.4-45c10-24.6,10.3-28.6,16.9-34.7
			c6.7-6.1,14.1-9.2,21.5-12.2c12-4.9,22.7-6.7,30-7.5L922.1,631.6z"/>
		<path class="st6" d="M802.2,760.9c-1.3,2.5-10.1,19.7-1.9,35.6c2.8,5.5,6.5,8.6,7.5,9.4c11.9,9.5,32.7,9.4,44,0
			c5.5-4.5,7.5-10.1,13.1-10.3c4.4-0.1,5.4,3.2,10.3,4.7c4.8,1.4,9.3-0.1,27.2-10.3c12.2-7,18.3-10.5,20.6-13.1
			c7.5-8.7,9.1-19.2,9.4-26.2c-2.3,2.4-5.8,6-10.3,10.3c-14.4,13.8-20.8,17.5-26.2,19.7c-5.4,2.2-10.1,4-14.1,1.9
			c-5.3-2.9-4.5-10.4-8.4-11.2c-3.3-0.7-5,4.6-12.2,9.4c-1.4,0.9-12.4,8.3-19.7,4.7c-6.4-3.2-6.3-13.3-9.4-13.1
			c-2.7,0.1-2.5,8.3-7.5,11.2c-4.3,2.5-10.6,0.2-15.9-2.8L802.2,760.9z"/>
		<polygon class="st6" points="855.8,789 885.5,744 864.6,784.3 		"/>
		<polygon class="st6" points="816.7,789 826.1,789 840.6,757.1 822.3,785.7 		"/>
		<path class="st6" d="M926,755.4c247.3,97,359,142.3,365.4,147.4c0.6,0.5,5.1,4.4,8.7,3.1c3-1.1,4.1-5.2,4.4-6.2
			c2.1-8-3.7-12.8-6.2-23.7c-1.2-5-1-8.7-0.6-16.2c2-42.1,10.6-72.5,10.6-72.5c6-21.2,12.4-55.7,12.5-113
			c-1.8,6.7-4.5,16.8-7.5,29.4c-4.7,19.5-5.2,23.7-9.4,40c-5.6,21.5-9.6,33-18.7,44.3c-2,2.4-3.8,4.4-5,5.6
			c-2.1,0.2-6.2,0.5-11.2,0.3c-15.3-0.6-26.7-5.5-30.6-7.2c-43.1-18.3-27.6-2.7-147.4-59.3c-16.6-7.8-39.5-18.8-66.8-32.5
			c0.1-0.8,0.5-2.2,1.2-3.7c4.9-9.9,20.2-10.8,20-11.9c-0.2-0.9-10.1-1.1-23.1,2.5c-9.9,2.8-16.4,4.6-22.5,10
			c-8.9,7.8-6.7,14.2-16.9,24.4c-3.4,3.4-5.9,5-13.7,10c-13.2,8.4-24.6,15.5-33.7,21.2L926,755.4z"/>
	</g>
</g>
<image style="overflow:visible;opacity:0.51;" width="1920" height="932" xlink:href="rr.jpg" >
</image>
</svg>
